<svg xmlns="http://www.w3.org/2000/svg" xmlns:xlink="http://www.w3.org/1999/xlink" style="display:none"><defs><path id="a" d="M949.97 303.05h13.5l-2.28 2.28a1 1 0 0 0 0 1.4.976.976 0 0 0 1.41 0l3.98-3.97a1 1 0 0 0 0-1.41l-3.98-3.98a1 1 0 0 0-1.4 0 1 1 0 0 0 0 1.41l2.28 2.28h-13.5a1 1 0 0 0 0 1.99zm-8.65 9.65c.2.2.44.3.7.3.26 0 .5-.1.7-.3a1 1 0 0 0 0-1.4l-2.28-2.29h13.5a1 1 0 0 0 0-1.99h-13.5l2.29-2.27a1 1 0 0 0 0-1.41 1 1 0 0 0-1.41 0l-3.98 3.97a1 1 0 0 0 0 1.42z"/><path id="a" d="M659 410a1 1 0 0 1-1-1v-4a1 1 0 0 1 2 0v4a1 1 0 0 1-1 1zm12 0a1 1 0 0 1-1-1v-4a1 1 0 0 1 2 0v4a1 1 0 0 1-1 1zm7-.92v17.84c0 1.7-1.38 3.08-3.08 3.08h-19.84a3.08 3.08 0 0 1-3.08-3.08v-17.84c0-1.7 1.38-3.08 3.08-3.08h.92v3a3 3 0 0 0 6 0v-3h6v3a3 3 0 0 0 6 0v-3h.92c1.7 0 3.08 1.38 3.08 3.08zm-2 4.92h-22v12h22zm-18 4h-2v-2h2zm0 4h-2v-2h2zm4-4h-2v-2h2zm0 4h-2v-2h2zm4-4h-2v-2h2zm0 4h-2v-2h2zm4-4h-2v-2h2zm4 0h-2v-2h2zm-4 4h-2v-2h2z"/><path id="a" d="M1320.14 125.92c1.66 0 3-1.65 3-3.7 0-2.03-1.34-3.22-3-3.22s-3 1.19-3 3.23 1.34 3.69 3 3.69zm5.84 5.21c-.3-2.67-2.76-3.63-5.76-3.63h-.17c-3 0-5.46.96-5.75 3.63l-.02.98a9.4 9.4 0 0 0 5.86 1.9c2.26 0 4.25-.7 5.86-1.9l-.02-.98z"/><path id="a" d="M1254.16 415.91a6.93 6.93 0 1 1 13.86.04 6.93 6.93 0 0 1-13.86-.04zm2.03 0a4.9 4.9 0 1 0 9.8-.05 4.9 4.9 0 0 0-9.8.05zm-6.2 9.65l4.39-4.37 1.43 1.44-4.38 4.37z"/></defs><symbol id="arrows" viewbox="0 0 33 19"><use fill="#fff" xlink:href="#a" transform="translate(-935 -295)"/></symbol><symbol id="calendar-copy" viewbox="0 0 29 29"><use fill="#656565" xlink:href="#a" transform="translate(-650 -402)"/></symbol><symbol id="man-icon" viewbox="0 0 14 19"><use fill="#a8d5eb" xlink:href="#a" transform="translate(-1313 -117)"/></symbol><symbol id="shape-11-copy" viewbox="0 0 22 21"><use fill="#fff" xlink:href="#a" transform="translate(-1248 -407)"/></symbol></svg>